HIERARCHY
ROOT hip
{
  OFFSET 52.6929 83.7425 239.092
  CHANNELS 6 Xposition Yposition Zposition Zrotation Xrotation Yrotation
  JOINT abdomen
  {
    OFFSET 0 20.6881 -0.73152
    CHANNELS 3 Zrotation Xrotation Yrotation
    JOINT chest
    {
      OFFSET 0 11.7043 -0.48768
      CHANNELS 3 Zrotation Xrotation Yrotation
      JOINT neck
      {
        OFFSET 0 22.1894 -2.19456
        CHANNELS 3 Zrotation Xrotation Yrotation
        JOINT head
        {
          OFFSET -0.24384 7.07133 1.2192
          CHANNELS 3 Zrotation Xrotation Yrotation
          JOINT leftEye
          {
            OFFSET 4.14528 8.04674 8.04672
            CHANNELS 3 Zrotation Xrotation Yrotation
            End Site
            {
              OFFSET 1 0 0
            }
          }
          JOINT rightEye
          {
            OFFSET -3.6576 8.04674 8.04672
            CHANNELS 3 Zrotation Xrotation Yrotation
            End Site
            {
              OFFSET 1 0 0
            }
          }
        }
      }
      JOINT rCollar
      {
        OFFSET -2.68224 19.2634 -4.8768
        CHANNELS 3 Zrotation Xrotation Yrotation
        JOINT rShldr
        {
          OFFSET -8.77824 -1.95073 1.46304
          CHANNELS 3 Zrotation Xrotation Yrotation
          JOINT rForeArm
          {
            OFFSET -28.1742 -1.7115 0.48768
            CHANNELS 3 Zrotation Xrotation Yrotation
            JOINT rHand
            {
              OFFSET -22.5879 0.773209 7.07136
              CHANNELS 3 Zrotation Xrotation Yrotation
              JOINT rThumb1
              {
                OFFSET -1.2192 -0.487915 3.41376
                CHANNELS 3 Zrotation Xrotation Yrotation
                JOINT rThumb2
                {
                  OFFSET -3.37035 -0.52449 3.41376
                  CHANNELS 3 Zrotation Xrotation Yrotation
                  End Site
                  {
                    OFFSET -1.78271 -1.18214 1.43049
                  }
                }
              }
              JOINT rIndex1
              {
                OFFSET -7.75947 0.938293 5.60832
                CHANNELS 3 Zrotation Xrotation Yrotation
                JOINT rIndex2
                {
                  OFFSET -2.54057 -0.884171 1.56538
                  CHANNELS 3 Zrotation Xrotation Yrotation
                  End Site
                  {
                    OFFSET -1.62519 -0.234802 1.16502
                  }
                }
              }
              JOINT rMid1
              {
                OFFSET -8.24714 1.18213 3.41376
                CHANNELS 3 Zrotation Xrotation Yrotation
                JOINT rMid2
                {
                  OFFSET -3.10165 -0.590103 1.0647
                  CHANNELS 3 Zrotation Xrotation Yrotation
                  End Site
                  {
                    OFFSET -2.48547 -0.328903 0.83742
                  }
                }
              }
              JOINT rRing1
              {
                OFFSET -8.82822 0.546677 1.51678
                CHANNELS 3 Zrotation Xrotation Yrotation
                JOINT rRing2
                {
                  OFFSET -2.60934 -0.819778 -0.0198488
                  CHANNELS 3 Zrotation Xrotation Yrotation
                  End Site
                  {
                    OFFSET -2.33842 -0.294052 0.168128
                  }
                }
              }
              JOINT rPinky1
              {
                OFFSET -8.27202 -0.0477905 -0.4584
                CHANNELS 3 Zrotation Xrotation Yrotation
                JOINT rPinky2
                {
                  OFFSET -1.82734 -0.647385 -0.700984
                  CHANNELS 3 Zrotation Xrotation Yrotation
                  End Site
                  {
                    OFFSET -1.69225 -0.51767 -0.607171
                  }
                }
              }
            }
          }
        }
      }
      JOINT lCollar
      {
        OFFSET 2.68224 19.2634 -4.8768
        CHANNELS 3 Zrotation Xrotation Yrotation
        JOINT lShldr
        {
          OFFSET 8.77824 -1.95073 1.46304
          CHANNELS 3 Zrotation Xrotation Yrotation
          JOINT lForeArm
          {
            OFFSET 28.1742 -1.7115 0.48768
            CHANNELS 3 Zrotation Xrotation Yrotation
            JOINT lHand
            {
              OFFSET 22.5879 0.773209 7.07136
              CHANNELS 3 Zrotation Xrotation Yrotation
              JOINT lThumb1
              {
                OFFSET 1.2192 -0.487915 3.41376
                CHANNELS 3 Zrotation Xrotation Yrotation
                JOINT lThumb2
                {
                  OFFSET 3.37035 -0.52449 3.41376
                  CHANNELS 3 Zrotation Xrotation Yrotation
                  End Site
                  {
                    OFFSET 1.78271 -1.18214 1.43049
                  }
                }
              }
              JOINT lIndex1
              {
                OFFSET 7.75947 0.938293 5.60832
                CHANNELS 3 Zrotation Xrotation Yrotation
                JOINT lIndex2
                {
                  OFFSET 2.54057 -0.884171 1.56538
                  CHANNELS 3 Zrotation Xrotation Yrotation
                  End Site
                  {
                    OFFSET 1.62519 -0.234802 1.16502
                  }
                }
              }
              JOINT lMid1
              {
                OFFSET 8.24714 1.18213 3.41376
                CHANNELS 3 Zrotation Xrotation Yrotation
                JOINT lMid2
                {
                  OFFSET 3.10165 -0.590103 1.0647
                  CHANNELS 3 Zrotation Xrotation Yrotation
                  End Site
                  {
                    OFFSET 2.48547 -0.328903 0.83742
                  }
                }
              }
              JOINT lRing1
              {
                OFFSET 8.82822 0.546677 1.51678
                CHANNELS 3 Zrotation Xrotation Yrotation
                JOINT lRing2
                {
                  OFFSET 2.60934 -0.819778 -0.0198488
                  CHANNELS 3 Zrotation Xrotation Yrotation
                  End Site
                  {
                    OFFSET 2.33842 -0.294052 0.168128
                  }
                }
              }
              JOINT lPinky1
              {
                OFFSET 8.27202 -0.0477905 -0.4584
                CHANNELS 3 Zrotation Xrotation Yrotation
                JOINT lPinky2
                {
                  OFFSET 1.82734 -0.647385 -0.700984
                  CHANNELS 3 Zrotation Xrotation Yrotation
                  End Site
                  {
                    OFFSET 1.69225 -0.51767 -0.607171
                  }
                }
              }
            }
          }
        }
      }
    }
  }
  JOINT rButtock
  {
    OFFSET -8.77824 4.35084 1.2192
    CHANNELS 3 Zrotation Xrotation Yrotation
    JOINT rThigh
    {
      OFFSET 0 -1.70687 -2.19456
      CHANNELS 3 Zrotation Xrotation Yrotation
      JOINT rShin
      {
        OFFSET 0 -36.8199 0.73152
        CHANNELS 3 Zrotation Xrotation Yrotation
        JOINT rFoot
        {
          OFFSET 0.73152 -45.1104 -5.12064
          CHANNELS 3 Zrotation Xrotation Yrotation
          End Site
          {
            OFFSET -1.1221 -3.69964 12.103
          }
        }
      }
    }
  }
  JOINT lButtock
  {
    OFFSET 8.77824 4.35084 1.2192
    CHANNELS 3 Zrotation Xrotation Yrotation
    JOINT lThigh
    {
      OFFSET 0 -1.70687 -2.19456
      CHANNELS 3 Zrotation Xrotation Yrotation
      JOINT lShin
      {
        OFFSET 0 -36.8199 0.73152
        CHANNELS 3 Zrotation Xrotation Yrotation
        JOINT lFoot
        {
          OFFSET -0.73152 -45.1104 -5.12064
          CHANNELS 3 Zrotation Xrotation Yrotation
          End Site
          {
            OFFSET 1.1221 -3.69964 12.103
          }
        }
      }
    }
  }
}
MOTION
Frames:	4
Frame Time:	0.00833333
48.4422 85.5269 255.259 -1.77869 0.00595645 0.0336575 2.34101 -0.00222417 0.0637214 0.646596 0.00594985 0.111938 -6.19423e-014 0 -5.96354e-016 -1.84808e-013 3.18055e-015 -1.76421e-015 -0 0 0 -0 0 0 -3.08634e-014 4.34841e-017 -1.49089e-016 -6.47472e-013 4.03781e-016 -7.55382e-015 -1.11827e-011 3.36721e-012 -6.36111e-015 -1.27767e-010 -3.18851e-012 -1.47896e-012 -3.01428e-010 3.91588e-013 -3.18055e-012 -5.20563e-010 6.74278e-013 -5.46658e-012 -3.01425e-010 3.91606e-013 -3.18692e-012 7.73091 5.47488 0.417314 -3.01429e-010 3.91109e-013 -3.17101e-012 2.90554 0.965183 0.102902 -3.01424e-010 3.91805e-013 -3.17181e-012 10.2786 0.731801 0.0259123 -3.01437e-010 3.95979e-013 -3.16465e-012 2.22167 -0.733487 -0.20892 -3.09607e-014 4.60078e-017 -4.47265e-016 -6.51768e-013 8.19987e-016 -9.1441e-015 -1.1151e-011 -3.3205e-012 -4.77083e-014 -1.27833e-010 3.51315e-012 -1.42171e-012 -3.0149e-010 4.19677e-013 -3.17419e-012 -5.20655e-010 7.21986e-013 -5.47692e-012 -3.01496e-010 4.21424e-013 -3.16465e-012 -7.73091 5.47488 -0.417314 -3.01491e-010 4.2033e-013 -3.18055e-012 -2.90554 0.965183 -0.102902 -3.01498e-010 4.20032e-013 -3.17737e-012 -10.2786 0.731801 -0.0259123 -3.01485e-010 4.20231e-013 -3.18692e-012 -2.22167 -0.733487 0.20892 -2.03217e-016 0 -3.88251e-019 2.21551 -8.02973 -0.231361 0.00607155 8.97368 0.15207 -0.477717 -0.951455 0.034867 2.03217e-016 0 3.88251e-019 1.35209 -1.92788 -0.00535843 0.00846634 -2.07867 0.069458 0.423833 3.99897 -0.127286 
49.6913 83.8639 243.988 -3.16501 0.420603 48.9138 -0.97236 1.27012 1.28855 0.194258 -1.59132 0.352151 -2.40965 2.89347 -0.493406 5.52623 0.729981 -2.07887 -0 0 0 -0 0 0 -4.45473e-015 5.75214e-015 3.57618e-015 23.4192 25.8381 5.7215 -5.66339 -2.94555 8.40399 0.0259669 3.57573 0.499007 -2.65164e-010 -9.28709e-011 1.32322e-011 -4.58097e-010 -1.6125e-010 2.35405e-011 -2.65161e-010 -9.28703e-011 1.3225e-011 7.73091 5.47488 0.417314 -2.65165e-010 -9.28713e-011 1.32392e-011 2.90554 0.965183 0.102902 -2.6516e-010 -9.28717e-011 1.32378e-011 10.2786 0.731801 0.0259123 -2.65172e-010 -9.28678e-011 1.32453e-011 2.22167 -0.733487 -0.20892 -4.55607e-015 5.74589e-015 3.24617e-015 -22.3908 28.9722 -5.4517 24.3334 -22.1771 -14.6026 -0.144724 -8.45605 1.14221 -1.83408e-010 1.4911e-011 6.93029e-011 -3.18047e-010 2.62943e-011 1.20166e-010 -1.83414e-010 1.49137e-011 6.93153e-011 -7.73091 5.47488 -0.417314 -1.83409e-010 1.49116e-011 6.93001e-011 -2.90554 0.965183 -0.102902 -1.83416e-010 1.49113e-011 6.93019e-011 -10.2786 0.731801 -0.0259123 -1.83404e-010 1.49118e-011 6.92939e-011 -2.22167 -0.733487 0.20892 -2.03217e-016 0 -3.88251e-019 4.09966 -10.5836 2.49126 0.0236384 15.667 0.273164 -1.46734 -5.75783 -5.97476 2.03217e-016 0 3.88251e-019 0.672694 -5.50938 -6.18181 -0.0512155 6.88675 -0.15729 1.35729 -3.68935 5.34441 
49.6744 83.8706 243.98 -4.92562 -0.240625 100.582 -4.53298 2.60852 2.5852 -0.26703 -3.27768 0.607132 -4.90488 5.95283 -1.01855 11.4231 1.50129 -4.27728 -0 0 0 -0 0 0 2.56601e-014 1.22396e-014 6.41391e-015 39.4232 52.0953 17.4063 -10.7214 -5.84849 17.3591 -0.0148195 7.35583 1.03316 -2.542e-010 -2.12096e-010 2.29946e-011 -4.39481e-010 -3.68459e-010 4.14386e-011 -2.54197e-010 -2.12095e-010 2.29865e-011 7.73091 5.47488 0.417314 -2.54202e-010 -2.12097e-010 2.2999e-011 2.90554 0.965183 0.102902 -2.54196e-010 -2.12098e-010 2.29969e-011 10.2786 0.731801 0.0259123 -2.54207e-010 -2.12094e-010 2.30048e-011 2.22167 -0.733487 -0.20892 2.55535e-014 1.22247e-014 6.0474e-015 -35.1756 58.4161 -18.9806 35.0686 -40.3163 -37.6707 0.084808 -17.3886 2.43609 -5.57366e-011 4.48647e-011 1.66298e-010 -9.93841e-011 7.86796e-011 2.88181e-010 -5.57411e-011 4.48685e-011 1.66314e-010 -7.73091 5.47488 -0.417314 -5.57368e-011 4.48653e-011 1.66299e-010 -2.90554 0.965183 -0.102902 -5.57442e-011 4.4865e-011 1.66299e-010 -10.2786 0.731801 -0.0259123 -5.57321e-011 4.48659e-011 1.66293e-010 -2.22167 -0.733487 0.20892 -2.03217e-016 0 -3.88251e-019 6.36118 -13.2445 5.42348 0.00864961 22.7426 0.414542 -3.61863 -10.6534 -12.4821 2.03217e-016 0 3.88251e-019 -0.889773 -9.12939 -12.8219 -0.0345737 16.3629 -0.411379 3.96032 -11.6285 11.3449 
49.6569 83.8792 243.964 -5.53926 -1.59409 146.654 -7.76248 3.80765 3.74554 -0.670109 -4.78545 0.835079 -7.078 8.67781 -1.49546 16.7374 2.17841 -6.24062 -0 0 0 -0 0 0 4.83626e-014 1.71695e-014 1.10267e-014 26.71 70.4427 52.7018 -14.4695 -8.07772 25.4486 -0.111756 10.7239 1.52067 -1.92636e-010 -2.79396e-010 4.60577e-011 -3.33165e-010 -4.85098e-010 8.15546e-011 -1.92633e-010 -2.79394e-010 4.60487e-011 7.73091 5.47488 0.417314 -1.92638e-010 -2.79396e-010 4.60597e-011 2.90554 0.965183 0.102902 -1.92632e-010 -2.79399e-010 4.60571e-011 10.2786 0.731801 0.0259123 -1.92642e-010 -2.79395e-010 4.60653e-011 2.22167 -0.733487 -0.20892 4.82531e-014 1.71456e-014 1.0633e-014 3.87358 75.4397 -79.3319 31.0511 -45.0397 -66.8021 0.667962 -25.3256 3.75025 5.27547e-011 4.38936e-011 2.14257e-010 8.71688e-011 7.74388e-011 3.71451e-010 5.27505e-011 4.38981e-011 2.14275e-010 -7.73091 5.47488 -0.417314 5.27546e-011 4.38941e-011 2.14261e-010 -2.90554 0.965183 -0.102902 5.2747e-011 4.38938e-011 2.1426e-010 -10.2786 0.731801 -0.0259123 5.27589e-011 4.3895e-011 2.14256e-010 -2.22167 -0.733487 0.20892 -2.03217e-016 0 -3.88251e-019 8.61878 -15.5714 8.10406 -0.0388155 29.053 0.558965 -6.50179 -14.6981 -18.5306 2.03217e-016 0 3.88251e-019 -3.00094 -12.102 -18.8837 0.0587061 24.8162 -0.669076 7.7476 -18.3224 17.148 
